<?xml version="1.0" standalone="no"?>
<!DOCTYPE svg PUBLIC "-//W3C//DTD SVG 20010904//EN"
 "http://www.w3.org/TR/2001/REC-SVG-20010904/DTD/svg10.dtd">
<svg version="1.0" xmlns="http://www.w3.org/2000/svg"
 width="512.000000pt" height="512.000000pt" viewBox="0 0 512.000000 512.000000"
 preserveAspectRatio="xMidYMid meet">

<g transform="translate(0.000000,512.000000) scale(0.100000,-0.100000)"
fill="#000000" stroke="none">
<path d="M2321 4339 c-597 -63 -1207 -395 -1693 -923 -204 -222 -410 -497
-572 -763 l-56 -93 71 -117 c294 -486 621 -865 985 -1139 446 -335 923 -513
1424 -531 398 -14 755 66 1130 253 543 272 1048 773 1455 1444 l55 90 -55 90
c-396 653 -890 1150 -1415 1424 -425 221 -879 312 -1329 265z m429 -510 c369
-45 719 -203 1060 -475 122 -98 339 -319 455 -464 118 -147 235 -312 235 -331
0 -8 -40 -69 -88 -136 -479 -667 -1049 -1056 -1662 -1132 -475 -59 -980 108
-1440 475 -122 98 -339 319 -455 464 -114 142 -235 312 -235 330 0 18 121 188
235 330 116 145 333 366 455 464 335 268 691 429 1050 475 95 12 293 13 390 0z"/>
<path d="M2455 3319 c-252 -39 -469 -194 -579 -415 -56 -111 -78 -209 -78
-344 0 -296 150 -543 413 -680 115 -60 210 -82 349 -82 296 0 543 150 680 413
60 115 82 210 82 349 0 235 -95 441 -273 590 -157 131 -398 200 -594 169z"/>
</g>
</svg>
